<?xml version="1.0" encoding="UTF-8" standalone="no"?>
<svg
   width="31"
   height="27"
   viewBox="0 0 31 27"
   fill="none"
   version="1.1"
   id="svg63"
   sodipodi:docname="drone-land-arrow.svg"
   inkscape:version="1.2.1 (9c6d41e410, 2022-07-14)"
   xmlns:inkscape="http://www.inkscape.org/namespaces/inkscape"
   xmlns:sodipodi="http://sodipodi.sourceforge.net/DTD/sodipodi-0.dtd"
   xmlns="http://www.w3.org/2000/svg"
   xmlns:svg="http://www.w3.org/2000/svg">
  <sodipodi:namedview
     id="namedview65"
     pagecolor="#ffffff"
     bordercolor="#000000"
     borderopacity="0.25"
     inkscape:pageshadow="2"
     inkscape:pageopacity="0.0"
     inkscape:pagecheckerboard="0"
     inkscape:blackoutopacity="0.0"
     showgrid="false"
     inkscape:zoom="27.481481"
     inkscape:cx="15.519542"
     inkscape:cy="13.40903"
     inkscape:window-width="1920"
     inkscape:window-height="974"
     inkscape:window-x="-11"
     inkscape:window-y="-11"
     inkscape:window-maximized="1"
     inkscape:current-layer="svg63"
     inkscape:showpageshadow="2"
     inkscape:deskcolor="#d1d1d1" />
  <g
     clip-path="url(#clip0_1450_347)"
     id="g48"
     style="fill:#7d7d7d;fill-opacity:1">
    <path
       d="M11.4886 1.72656H19.5126C20.0567 1.72656 20.5012 2.14564 20.5012 2.65864V3.12107C20.5012 4.16153 19.6046 5.00691 18.501 5.00691H12.5002C11.3967 5.00691 10.5 4.16153 10.5 3.12107V2.65864C10.5 2.14564 10.9445 1.72656 11.4886 1.72656Z"
       fill="#666666"
       id="path38"
       style="fill:#7d7d7d;fill-opacity:1" />
    <path
       d="M17.236 2.77457H13.7644C13.1206 2.77457 12.5918 2.27601 12.5918 1.66908C12.5918 0.751445 13.3812 0 14.3621 0H16.6459C17.6192 0 18.4163 0.74422 18.4163 1.66908C18.4163 2.27601 17.8875 2.77457 17.2437 2.77457H17.236ZM14.3545 0.592486C13.726 0.592486 13.2126 1.07659 13.2126 1.66908C13.2126 1.95809 13.4578 2.18931 13.7644 2.18931H17.236C17.5426 2.18931 17.7878 1.95809 17.7878 1.66908C17.7878 1.07659 17.2744 0.592486 16.6459 0.592486H14.3621H14.3545Z"
       fill="#666666"
       id="path40"
       style="fill:#7d7d7d;fill-opacity:1" />
    <path
       d="M29.7585 0.535156H23.8803C23.4282 0.535156 22.999 0.68689 22.6235 0.92533C22.1943 1.20712 21.6732 1.36608 21.1137 1.36608H9.87862C9.31916 1.36608 8.79802 1.1999 8.36885 0.92533C7.99332 0.68689 7.56415 0.535156 7.11199 0.535156H1.24153C0.551792 0.535156 0 1.06261 0 1.70568C0 2.34874 0.559456 2.8762 1.24153 2.8762H29.7585C30.4482 2.8762 31 2.34874 31 1.70568C31 1.06261 30.4405 0.535156 29.7585 0.535156Z"
       fill="#666666"
       id="path42"
       style="fill:#7d7d7d;fill-opacity:1" />
    <path
       d="M3.9933 1.80715C3.9933 1.5318 3.75826 1.30859 3.46833 1.30859C3.1784 1.30859 2.94336 1.5318 2.94336 1.80715V4.10484C2.94336 4.38018 3.1784 4.60339 3.46833 4.60339C3.75826 4.60339 3.9933 4.38018 3.9933 4.10484V1.80715Z"
       fill="#666666"
       id="path44"
       style="fill:#7d7d7d;fill-opacity:1" />
    <path
       d="M28.0577 1.80715C28.0577 1.5318 27.8227 1.30859 27.5328 1.30859C27.2428 1.30859 27.0078 1.5318 27.0078 1.80715V4.10484C27.0078 4.38018 27.2428 4.60339 27.5328 4.60339C27.8227 4.60339 28.0577 4.38018 28.0577 4.10484V1.80715Z"
       fill="#666666"
       id="path46"
       style="fill:#7d7d7d;fill-opacity:1" />
  </g>
  <rect
     x="12.5"
     y="11"
     width="6"
     height="12"
     fill="#E17A7C"
     id="rect50" />
  <rect
     x="12.5"
     y="8"
     width="6"
     height="2"
     fill="#E17A7C"
     fill-opacity="0.8"
     id="rect52" />
  <rect
     x="12.5"
     y="6"
     width="6"
     height="1"
     fill="#E17A7C"
     fill-opacity="0.6"
     id="rect54" />
  <path
     d="M15.5 27L22.4282 22.5H8.5718L15.5 27Z"
     fill="#E17A7C"
     id="path56" />
  <defs
     id="defs61">
    <clipPath
       id="clip0_1450_347">
      <rect
         width="31"
         height="5"
         fill="white"
         id="rect58" />
    </clipPath>
  </defs>
</svg>
